<svg width="350" height="350" viewBox="0 0 350 350" fill="none" xmlns="http://www.w3.org/2000/svg">
<path d="M321.76 246.042C319.193 239.449 317.276 232.451 315.182 225.06C313.771 220.079 311.496 214.505 306.563 212.935C301.764 211.408 296.597 214.573 293.646 218.653C290.694 222.732 289.207 227.679 286.682 232.037C282.107 239.933 274.002 243.243 267.305 236.3C257.737 226.383 253.431 212.866 247.364 200.77C242.959 191.988 239.273 181.708 233.724 173.615C225.261 161.273 213.658 150.75 198.228 150.75C188.447 152.232 179.829 160.895 173.996 171.721C168.164 182.547 164.762 195.423 161.862 208.268C156.589 231.626 152.726 255.527 148.868 279.397L343.549 277.126C342.776 277.136 338.002 270.756 337.088 269.871C329.613 262.639 325.127 254.688 321.76 246.042" fill="#D1E4EB"/>
<path d="M284.807 257.173C284.425 264.741 276.191 277.971 268.623 277.59C261.054 277.208 257.02 263.359 257.401 255.791C257.783 248.224 265.842 210.352 273.41 210.734C280.978 211.115 285.188 249.605 284.807 257.173Z" fill="#5F9CD9"/>
<path d="M272.743 215.635L268.927 276.963C268.917 277.131 269.044 277.275 269.211 277.285C269.379 277.296 269.522 277.169 269.533 277.001L273.349 215.672C273.359 215.505 273.232 215.361 273.065 215.351C272.898 215.34 272.754 215.467 272.743 215.635" fill="#255CB2"/>
<path d="M267.486 255.597C265.762 259.383 264.451 263.355 263.657 267.493C263.255 269.592 263.002 271.865 263.951 273.78C264.988 275.87 267.29 277.088 269.593 277.467C275.218 278.39 280.845 274.945 284.142 270.294C287.439 265.644 288.867 259.96 290.178 254.413C291.209 250.045 292.223 245.612 294.168 241.541C295.002 239.796 299.884 233.06 297.575 231.313C294.416 228.831 285.272 231.531 279.412 237.927C274.585 243.196 270.433 249.123 267.486 255.597" fill="#FABB43"/>
<path d="M269.887 277.542C269.887 277.542 269.913 277.442 269.966 277.246C270.761 274.308 277.7 250.214 292.987 236.086C293.11 235.971 293.118 235.78 293.004 235.656C292.89 235.533 292.698 235.526 292.575 235.64C276.091 250.898 269.31 277.369 269.299 277.391C269.257 277.554 269.355 277.719 269.517 277.761C269.68 277.802 269.845 277.704 269.887 277.542" fill="#5F9CD9"/>
<path d="M307.266 249.36C306.684 250.403 305.595 251.112 304.606 251.67C303.386 252.357 302.087 252.96 300.832 253.545C299.22 254.295 297.552 255.07 296.014 256.036C294.892 256.742 293.896 257.537 293.059 258.39C294.38 255.389 295.924 252.768 297.743 250.425C300.138 247.343 302.595 245.781 305.051 245.781L305.222 245.784C305.981 245.806 306.572 245.994 306.979 246.343C307.813 247.06 307.78 248.44 307.266 249.36Z" fill="#255CB2"/>
<path d="M310.009 266.456C309.037 267.149 307.749 267.324 306.616 267.405C305.22 267.504 303.788 267.494 302.403 267.485C300.625 267.473 298.787 267.46 296.983 267.676C295.666 267.833 294.426 268.125 293.305 268.538C295.784 266.391 298.3 264.683 300.946 263.344C304.429 261.582 307.319 261.223 309.539 262.273L309.691 262.349C310.369 262.693 310.822 263.117 311.041 263.606C311.487 264.611 310.867 265.845 310.009 266.456Z" fill="#255CB2"/>
<path d="M303.535 274.869C302.727 274.758 302.004 274.241 301.403 273.75C300.662 273.146 299.954 272.469 299.27 271.816C298.391 270.976 297.483 270.108 296.485 269.37C295.756 268.831 295.002 268.395 294.251 268.075C296.491 268.169 298.542 268.498 300.486 269.073C303.044 269.83 304.65 271.005 305.261 272.568L305.302 272.677C305.477 273.166 305.505 273.589 305.383 273.935C305.135 274.644 304.248 274.967 303.535 274.869" fill="#255CB2"/>
<path d="M285.395 277.618C285.395 277.618 285.396 277.562 285.401 277.444C285.483 275.668 286.674 260.749 305.111 247.927C305.235 247.841 305.266 247.671 305.18 247.547C305.094 247.423 304.923 247.393 304.8 247.479C284.953 261.274 284.845 277.566 284.849 277.616C284.848 277.766 284.97 277.889 285.121 277.889C285.272 277.89 285.394 277.769 285.395 277.618" fill="#20254D"/>
<path d="M285.37 277.732C285.37 277.732 285.391 277.687 285.438 277.595C285.79 276.902 287.528 273.719 291.081 270.718C294.636 267.717 299.993 264.894 307.632 264.893C307.783 264.893 307.905 264.77 307.905 264.62C307.905 264.469 307.783 264.347 307.632 264.347C299.337 264.345 293.635 267.632 290.027 270.916C286.417 274.201 284.885 277.48 284.875 277.502C284.811 277.638 284.87 277.801 285.006 277.864C285.144 277.928 285.306 277.869 285.37 277.732" fill="#20254D"/>
<path d="M294.091 268.508L294.099 268.507L294.14 268.507C294.564 268.507 297.688 268.672 303.741 273.237C303.862 273.328 304.032 273.305 304.123 273.184C304.214 273.064 304.19 272.893 304.069 272.802C297.952 268.186 294.711 267.961 294.14 267.961L294.051 267.963C293.901 267.975 293.788 268.106 293.799 268.256C293.81 268.406 293.94 268.519 294.091 268.508" fill="#20254D"/>
<path d="M115.363 277.757C110.795 260.496 106.203 243.226 100.834 226.509C97.8075 217.083 94.4671 207.692 89.8268 200.151C85.1865 192.61 79.0391 187.046 72.8686 187.084C63.3587 188.924 57.2241 198.314 53.2011 208.713C50.5629 215.532 49.2841 223.793 47.4178 230.999C44.847 240.925 43.4987 251.723 38.5601 260.409C35.1031 266.489 29.7885 264.938 26.2062 259.475C24.2296 256.461 22.8356 252.875 20.6223 250.123C18.4091 247.371 14.9193 245.579 12.1097 247.313C9.22108 249.096 8.35735 253.607 7.9685 257.565C7.39184 263.439 6.88678 268.991 5.94123 274.313C5.73533 275.472 5.5062 276.619 5.25327 277.757H115.363" fill="#D1E4EB"/>
<path d="M74.5297 253.929C71.6765 250.638 68.0651 247.799 66.9263 243.646C66.0942 240.612 66.7507 237.401 67.0756 234.272C67.4004 231.142 67.2864 227.682 65.2621 225.273C63.5939 223.289 60.9591 222.427 58.4243 221.882C55.8898 221.337 53.2446 220.993 50.9955 219.703C47.3432 217.61 48.0709 214.047 46.1103 210.923C43.9102 207.417 38.7915 202.945 34.4036 205.274C29.7571 207.739 30.4932 215.225 33.5841 218.531C35.6344 220.723 38.2594 222.827 38.561 225.813C39.0151 230.31 33.8633 234.358 35.2805 238.65C36.3273 241.819 40.3224 242.909 42.2956 245.601C44.2476 248.265 43.8544 251.998 42.7052 255.094C41.5556 258.189 39.7455 261.052 39.0307 264.276C37.5676 270.873 42.7437 275.432 48.6421 276.903C54.0616 278.254 65.7511 277.616 65.7511 277.616C69.9223 276.158 74.5472 272.493 76.8404 268.489C78.5729 265.464 78.813 261.629 77.4704 258.412C76.7788 256.754 75.7204 255.303 74.5297 253.929Z" fill="#FABB43"/>
<path d="M39.3041 212.579C39.3041 212.579 39.3802 212.697 39.5259 212.929C41.7145 216.416 59.3537 245.491 61.3771 277.469C61.3894 277.662 61.5557 277.808 61.7484 277.796C61.9415 277.784 62.0881 277.617 62.0758 277.425C59.8913 243.076 39.9036 212.225 39.8918 212.199C39.7868 212.037 39.5699 211.99 39.4078 212.095C39.2453 212.2 39.1989 212.417 39.3041 212.579" fill="#5F9CD9"/>
<path d="M21.8216 253.97C22.1293 253.706 22.5764 253.563 23.1509 253.547L23.2794 253.545C25.1366 253.545 26.9948 254.725 28.8055 257.056C30.1809 258.827 31.3479 260.81 32.3473 263.079C31.7146 262.434 30.9616 261.833 30.1129 261.3C28.9491 260.568 27.6885 259.982 26.4698 259.415C25.5207 258.973 24.5385 258.517 23.6165 257.998C22.8683 257.576 22.0445 257.039 21.6048 256.251C21.216 255.555 21.1911 254.512 21.8216 253.97" fill="#5F9CD9"/>
<path d="M18.7504 267.023C18.9156 266.652 19.2587 266.333 19.7706 266.072L19.8863 266.015C21.5646 265.22 23.7494 265.493 26.3831 266.824C28.3844 267.837 30.2873 269.128 32.1614 270.752C31.3135 270.44 30.3756 270.219 29.3803 270.1C28.0159 269.937 26.6257 269.947 25.2815 269.956C24.2348 269.963 23.1516 269.97 22.0959 269.895C21.2398 269.835 20.2653 269.702 19.5305 269.178C18.8816 268.715 18.4124 267.783 18.7504 267.023" fill="#5F9CD9"/>
<path d="M23.0284 274.833C22.9368 274.572 22.9575 274.252 23.0898 273.882L23.1208 273.799C23.5831 272.617 24.7969 271.729 26.731 271.157C28.2007 270.722 29.7524 270.473 31.4459 270.402C30.8776 270.644 30.3078 270.974 29.7568 271.381C29.0021 271.94 28.3153 272.596 27.6508 273.23C27.1335 273.725 26.5984 274.236 26.0384 274.693C25.5839 275.064 25.037 275.455 24.4261 275.539C23.8867 275.613 23.2162 275.369 23.0284 274.833" fill="#5F9CD9"/>
<path d="M38.6214 277.616C38.6255 277.566 38.5361 265.219 23.5077 254.774C23.3838 254.688 23.2137 254.718 23.1276 254.842C23.0415 254.966 23.0721 255.136 23.196 255.222C30.6234 260.387 34.3372 265.996 36.2015 270.31C37.1334 272.467 37.602 274.301 37.8374 275.592C37.9553 276.237 38.0149 276.748 38.045 277.094C38.06 277.268 38.0677 277.4 38.0715 277.489C38.0754 277.577 38.0754 277.618 38.0756 277.618C38.0761 277.769 38.1989 277.89 38.3498 277.889C38.5005 277.889 38.6222 277.766 38.6214 277.616" fill="#20254D"/>
<path d="M38.5956 277.502C38.5856 277.481 37.4237 274.994 34.6844 272.501C31.947 270.009 27.6185 267.515 21.3276 267.516C21.1768 267.516 21.0546 267.639 21.0546 267.789C21.0546 267.94 21.1768 268.062 21.3276 268.062C27.4703 268.064 31.6523 270.484 34.3169 272.905C35.6483 274.116 36.5971 275.327 37.2115 276.235C37.5188 276.688 37.7426 277.065 37.8886 277.327C37.9619 277.458 38.0154 277.561 38.0507 277.631C38.086 277.699 38.101 277.732 38.1013 277.732C38.165 277.868 38.3274 277.928 38.4638 277.864C38.6006 277.801 38.6596 277.638 38.5956 277.502Z" fill="#20254D"/>
<path d="M31.6022 270.251L31.5298 270.249C31.0808 270.249 28.6146 270.427 23.9813 273.923C23.861 274.014 23.8369 274.185 23.9277 274.305C24.0185 274.425 24.1896 274.45 24.3099 274.359C28.8794 270.912 31.2276 270.795 31.5298 270.795L31.5588 270.796H31.5634L31.5689 270.697L31.5615 270.796H31.5634L31.5689 270.697L31.5615 270.796C31.7116 270.807 31.8428 270.694 31.8541 270.544C31.8653 270.394 31.7526 270.262 31.6022 270.251" fill="#20254D"/>
<path d="M198.618 277.617H66.9058C63.2529 277.617 60.2916 274.656 60.2916 271.002V92.3979C60.2916 88.7446 63.2529 85.7836 66.9058 85.7836H198.618C202.271 85.7836 205.232 88.7446 205.232 92.3979V271.002C205.232 274.656 202.271 277.617 198.618 277.617Z" fill="#5F9CD9"/>
<path d="M60.2916 132.517V271.002C60.2916 274.656 63.2529 277.617 66.9061 277.617H198.618C202.271 277.617 205.232 274.656 205.232 271.002V243.671L60.2916 132.517Z" fill="#4A73C2"/>
<path d="M194.108 268.766H71.4161C69.9231 268.766 68.7129 267.555 68.7129 266.062V97.3378C68.7129 95.8447 69.9231 94.6344 71.4161 94.6344H194.108C195.6 94.6344 196.811 95.8447 196.811 97.3378V266.062C196.811 267.555 195.6 268.766 194.108 268.766" fill="#F0F1F2"/>
<path d="M143.749 82.1604C143.758 81.9798 143.777 81.8013 143.777 81.6179C143.777 75.5349 138.845 70.6027 132.762 70.6027C126.678 70.6027 121.747 75.5349 121.747 81.6179C121.747 81.8013 121.766 81.9798 121.774 82.1604H105.581V98.952H159.943V82.1604H143.749Z" fill="#255CB2"/>
<path d="M105.581 82.1604V98.952H159.943L105.581 82.1604Z" fill="#2E6CBE"/>
<path d="M138.947 81.618C138.947 85.034 136.178 87.8032 132.762 87.8032C129.346 87.8032 126.577 85.034 126.577 81.618C126.577 78.202 129.346 75.4328 132.762 75.4328C136.178 75.4328 138.947 78.202 138.947 81.618Z" fill="#4A73C2"/>
<path d="M128.388 77.2443C125.973 79.66 125.973 83.5765 128.388 85.9915C130.803 88.4072 134.72 88.4072 137.136 85.9915L128.388 77.2443Z" fill="#5F9CD9"/>
<path d="M105.581 100.108H159.943V98.9521H105.581V100.108Z" fill="#B2D6F0"/>
<path d="M104.133 142.825V142.475H83.8649V122.557H103.783V142.825H104.133V142.475V142.825H104.483V121.857H83.1649V143.175H104.483V142.825H104.133Z" fill="#255CB2"/>
<path d="M88.6837 134.672L95.9476 140.375L109.645 127.178L107.702 125.161L95.76 136.667L90.4134 132.469L88.6837 134.672" fill="#F0F1F2"/>
<path d="M87.2837 133.272L94.5476 138.975L108.245 125.778L106.302 123.761L94.36 135.267L89.0134 131.069L87.2837 133.272" fill="#F2566E"/>
<path d="M181.215 128.059H114.03C113.592 128.059 113.237 127.704 113.237 127.266C113.237 126.827 113.592 126.472 114.03 126.472H181.215C181.653 126.472 182.008 126.827 182.008 127.266C182.008 127.704 181.653 128.059 181.215 128.059" fill="#5F9CD9"/>
<path d="M181.215 131.559H114.03C113.592 131.559 113.237 131.204 113.237 130.766C113.237 130.327 113.592 129.973 114.03 129.973H181.215C181.653 129.973 182.008 130.327 182.008 130.766C182.008 131.204 181.653 131.559 181.215 131.559" fill="#5F9CD9"/>
<path d="M181.215 135.059H114.03C113.592 135.059 113.237 134.705 113.237 134.266C113.237 133.827 113.592 133.473 114.03 133.473H181.215C181.653 133.473 182.008 133.827 182.008 134.266C182.008 134.705 181.653 135.059 181.215 135.059" fill="#5F9CD9"/>
<path d="M181.215 138.559H114.03C113.592 138.559 113.237 138.205 113.237 137.766C113.237 137.328 113.592 136.973 114.03 136.973H181.215C181.653 136.973 182.008 137.328 182.008 137.766C182.008 138.205 181.653 138.559 181.215 138.559" fill="#5F9CD9"/>
<path d="M104.133 176.018V175.668H83.8649V155.75H103.783V176.018H104.133V175.668V176.018H104.483V155.05H83.1649V176.368H104.483V176.018H104.133Z" fill="#255CB2"/>
<path d="M88.6837 167.865L95.9476 173.567L109.645 160.371L107.702 158.355L95.76 169.86L90.4134 165.662L88.6837 167.865" fill="#F0F1F2"/>
<path d="M87.2837 166.465L94.5476 172.167L108.245 158.971L106.302 156.955L94.36 168.46L89.0134 164.262L87.2837 166.465" fill="#F2566E"/>
<path d="M181.215 161.252H114.03C113.592 161.252 113.237 160.897 113.237 160.459C113.237 160.021 113.592 159.665 114.03 159.665H181.215C181.653 159.665 182.008 160.021 182.008 160.459C182.008 160.897 181.653 161.252 181.215 161.252" fill="#5F9CD9"/>
<path d="M181.215 164.753H114.03C113.592 164.753 113.237 164.397 113.237 163.959C113.237 163.521 113.592 163.165 114.03 163.165H181.215C181.653 163.165 182.008 163.521 182.008 163.959C182.008 164.397 181.653 164.753 181.215 164.753" fill="#5F9CD9"/>
<path d="M181.215 168.253H114.03C113.592 168.253 113.237 167.897 113.237 167.459C113.237 167.021 113.592 166.665 114.03 166.665H181.215C181.653 166.665 182.008 167.021 182.008 167.459C182.008 167.897 181.653 168.253 181.215 168.253" fill="#5F9CD9"/>
<path d="M181.215 171.753H114.03C113.592 171.753 113.237 171.397 113.237 170.959C113.237 170.521 113.592 170.166 114.03 170.166H181.215C181.653 170.166 182.008 170.521 182.008 170.959C182.008 171.397 181.653 171.753 181.215 171.753" fill="#5F9CD9"/>
<path d="M104.133 209.211V208.861H83.8649V188.943H103.783V209.211H104.133V208.861V209.211H104.483V188.243H83.1649V209.561H104.483V209.211H104.133" fill="#255CB2"/>
<path d="M88.6837 201.057L95.9476 206.76L109.645 193.564L107.702 191.547L95.76 203.053L90.4134 198.855L88.6837 201.057" fill="#F0F1F2"/>
<path d="M87.2837 199.658L94.5476 205.36L108.245 192.164L106.302 190.147L94.36 201.653L89.0134 197.455L87.2837 199.658" fill="#F2566E"/>
<path d="M181.215 194.445H114.03C113.592 194.445 113.237 194.09 113.237 193.652C113.237 193.213 113.592 192.858 114.03 192.858H181.215C181.653 192.858 182.008 193.213 182.008 193.652C182.008 194.09 181.653 194.445 181.215 194.445" fill="#5F9CD9"/>
<path d="M181.215 197.945H114.03C113.592 197.945 113.237 197.59 113.237 197.151C113.237 196.713 113.592 196.358 114.03 196.358H181.215C181.653 196.358 182.008 196.713 182.008 197.151C182.008 197.59 181.653 197.945 181.215 197.945" fill="#5F9CD9"/>
<path d="M181.215 201.445H114.03C113.592 201.445 113.237 201.09 113.237 200.652C113.237 200.213 113.592 199.858 114.03 199.858H181.215C181.653 199.858 182.008 200.213 182.008 200.652C182.008 201.09 181.653 201.445 181.215 201.445" fill="#5F9CD9"/>
<path d="M181.215 204.945H114.03C113.592 204.945 113.237 204.59 113.237 204.152C113.237 203.714 113.592 203.358 114.03 203.358H181.215C181.653 203.358 182.008 203.714 182.008 204.152C182.008 204.59 181.653 204.945 181.215 204.945" fill="#5F9CD9"/>
<path d="M104.133 242.404V242.054H83.8649V222.136H103.783V242.404H104.133V242.054V242.404H104.483V221.436H83.1649V242.754H104.483V242.404H104.133Z" fill="#255CB2"/>
<path d="M88.6837 234.251L95.9476 239.953L109.645 226.757L107.702 224.741L95.76 236.246L90.4134 232.048L88.6837 234.251" fill="#F0F1F2"/>
<path d="M87.2837 232.851L94.5476 238.553L108.245 225.357L106.302 223.341L94.36 234.846L89.0134 230.648L87.2837 232.851" fill="#F2566E"/>
<path d="M181.215 227.638H114.03C113.592 227.638 113.237 227.283 113.237 226.845C113.237 226.407 113.592 226.051 114.03 226.051H181.215C181.653 226.051 182.008 226.407 182.008 226.845C182.008 227.283 181.653 227.638 181.215 227.638" fill="#5F9CD9"/>
<path d="M181.215 231.139H114.03C113.592 231.139 113.237 230.783 113.237 230.345C113.237 229.907 113.592 229.551 114.03 229.551H181.215C181.653 229.551 182.008 229.907 182.008 230.345C182.008 230.783 181.653 231.139 181.215 231.139" fill="#5F9CD9"/>
<path d="M181.215 234.639H114.03C113.592 234.639 113.237 234.283 113.237 233.845C113.237 233.407 113.592 233.051 114.03 233.051H181.215C181.653 233.051 182.008 233.407 182.008 233.845C182.008 234.283 181.653 234.639 181.215 234.639" fill="#5F9CD9"/>
<path d="M181.215 238.139H114.03C113.592 238.139 113.237 237.783 113.237 237.345C113.237 236.907 113.592 236.552 114.03 236.552H181.215C181.653 236.552 182.008 236.907 182.008 237.345C182.008 237.783 181.653 238.139 181.215 238.139" fill="#5F9CD9"/>
<path d="M211.12 139.891C210.692 140.218 206.806 142.513 206.806 142.513L204.049 138.982L204.869 134.957L210.804 135.327L211.843 138.332C212.089 139.045 211.65 139.486 211.12 139.891" fill="#F57378"/>
<path d="M210.804 135.327L211.7 137.96L208.962 139.063C208.44 139.289 207.858 139.332 207.309 139.184C206.102 138.859 205.318 137.696 205.469 136.455L205.646 135.007L210.804 135.327" fill="#F24F66"/>
<path d="M209.46 138.846L211.834 139.192L213.134 136.965C213.387 136.563 213.267 136.031 212.865 135.778C212.463 135.524 211.931 135.644 211.677 136.046L209.46 138.846Z" fill="#F2566E"/>
<path d="M207.664 148.368L202.77 149.605L201.02 163.773L206.748 164.007L207.664 148.368" fill="white"/>
<path d="M271.994 159.869L263.441 158.792L265.399 143.242L273.952 144.319C278.246 144.859 281.289 148.779 280.748 153.073C280.207 157.367 276.289 160.409 271.994 159.869" fill="#F57378"/>
<path d="M272.983 159.931C272.983 159.931 272.983 159.931 272.983 159.931C272.983 159.931 272.983 159.931 272.983 159.931ZM272.987 159.931C276.839 159.929 280.185 157.088 280.733 153.186C280.185 157.088 276.84 159.93 272.987 159.931ZM272.026 159.873C272.025 159.873 272.024 159.872 272.024 159.872C272.024 159.872 272.025 159.873 272.026 159.873ZM280.742 153.122C280.744 153.105 280.746 153.089 280.748 153.073C280.749 153.066 280.75 153.058 280.751 153.051C280.75 153.058 280.749 153.066 280.748 153.073C280.746 153.089 280.744 153.105 280.742 153.122ZM280.751 153.046C280.752 153.04 280.753 153.033 280.754 153.027C280.753 153.033 280.752 153.04 280.751 153.046ZM280.755 153.017C280.755 153.014 280.755 153.012 280.756 153.01C280.755 153.012 280.755 153.014 280.755 153.017Z" fill="#D2D4D2"/>
<path d="M272.983 159.931C272.982 159.931 272.982 159.931 272.982 159.931C272.667 159.931 272.347 159.912 272.026 159.873C272.025 159.873 272.024 159.872 272.023 159.872C272.014 159.872 272.004 159.87 271.994 159.869L269.91 159.606L270.197 157.324L270.356 156.064L272.44 156.327C272.772 156.369 273.102 156.389 273.428 156.389C276.721 156.389 279.642 154.314 280.766 151.276C280.825 151.841 280.825 152.422 280.756 153.01C280.755 153.012 280.755 153.014 280.755 153.017C280.755 153.021 280.754 153.024 280.754 153.027C280.753 153.033 280.752 153.04 280.751 153.046C280.751 153.047 280.751 153.049 280.751 153.051C280.75 153.058 280.749 153.066 280.748 153.073C280.746 153.089 280.744 153.105 280.742 153.122C280.739 153.143 280.736 153.165 280.733 153.186C280.185 157.088 276.839 159.929 272.987 159.931C272.985 159.931 272.985 159.931 272.983 159.931V159.931ZM266.363 159.16L263.441 158.792L266.363 159.16Z" fill="#F46969"/>
<path d="M262.399 158.661L171.655 146.955L173.613 131.405L264.356 143.111L262.399 158.661Z" fill="#FABB43"/>
<path d="M155.49 137.022L171.655 146.955L173.613 131.405L155.49 137.022Z" fill="#FEF0D2"/>
<path d="M171.655 146.955L155.49 137.022L172.134 143.152L171.655 146.955Z" fill="#E2D2B4"/>
<path d="M160.887 135.349L155.49 137.022L160.304 139.98L160.887 135.349Z" fill="#20254D"/>
<path d="M269.91 159.606L262.399 158.661L264.356 143.111L271.867 144.057L269.91 159.606Z" fill="#C1EBF1"/>
<path d="M269.826 160.272L267.259 159.949L269.384 143.067L271.951 143.391L269.826 160.272" fill="#C1EBF1"/>
<path d="M262.401 158.647L171.655 146.955L172.134 143.152L262.879 154.844L262.401 158.647Z" fill="#F3AA36"/>
<path d="M267.342 159.284L262.401 158.647L262.879 154.844L267.821 155.48L267.807 155.589L267.342 159.284" fill="#A9CFD5"/>
<path d="M263.88 146.9L264.356 143.111L213.267 136.521C213.267 136.519 213.267 136.517 213.267 136.515L269.286 143.732L264.356 143.111L263.88 146.9ZM211.484 136.291L211.121 136.244L211.119 136.238L211.488 136.285L211.484 136.291" fill="#E8EAEA"/>
<path d="M204.774 135.426L196.811 134.398V134.394L204.774 135.421L204.774 135.426" fill="#5B98D7"/>
<path d="M196.811 134.398L174.805 131.559H174.807L196.811 134.394V134.398Z" fill="#E8EAEA"/>
<path d="M174.807 131.559H174.805L173.613 131.405L174.807 131.559Z" fill="#5B98D7"/>
<path d="M211.121 136.244L211.116 136.243L211.114 136.237L211.119 136.238L211.121 136.244ZM205.582 135.529L204.774 135.426L204.774 135.421L205.583 135.524L205.582 135.529Z" fill="#F47074"/>
<path d="M211.116 136.243L205.582 135.529L205.583 135.524L211.114 136.237L211.116 136.243" fill="#F14D63"/>
<path d="M213.267 136.521L211.484 136.291L211.488 136.285L213.267 136.515C213.267 136.517 213.267 136.519 213.267 136.521" fill="#F2556A"/>
<path d="M263.88 146.9L173.134 135.209L173.613 131.405L174.805 131.559L196.811 134.398L204.774 135.426L205.582 135.529L211.116 136.243L211.121 136.244L211.484 136.291L213.267 136.521L264.356 143.111L263.88 146.9" fill="#FAB63F"/>
<path d="M173.134 135.209L173.613 131.405L173.134 135.209Z" fill="#FBE8C9"/>
<path d="M268.821 147.537L263.88 146.9L264.356 143.111L269.286 143.732L269.3 143.733L268.821 147.537" fill="#BAE5EB"/>
<path d="M268.821 147.537L269.3 143.733L268.821 147.537Z" fill="#BAE5EB"/>
<path d="M269.826 160.272L267.259 159.949L269.826 160.272L269.91 159.606L269.826 160.272ZM267.259 159.949L267.342 159.284L267.259 159.949Z" fill="#DADBD9"/>
<path d="M270.356 156.064L270.476 155.112L270.356 156.064Z" fill="#F46C6D"/>
<path d="M270.197 157.324L270.356 156.064L270.197 157.324Z" fill="#EE635F"/>
<path d="M269.91 159.606L270.476 155.112L270.356 156.064L270.197 157.324L269.91 159.606ZM267.342 159.284L267.807 155.589L267.814 155.532L267.342 159.284ZM267.821 155.48L267.908 154.789L267.821 155.48Z" fill="#AFD7DC"/>
<path d="M269.826 160.272L267.259 159.949L267.342 159.284L267.814 155.532L267.821 155.48L267.908 154.789L270.476 155.112L269.91 159.606L269.826 160.272" fill="#AFD7DC"/>
<path d="M267.807 155.589L267.821 155.48L267.814 155.532L267.807 155.589Z" fill="#9BBCC1"/>
<path d="M232.627 190.149L233.917 186.836L238.237 186.498C239.032 186.413 239.735 186.895 239.809 187.576C239.882 188.256 239.297 188.878 238.503 188.963L232.627 190.149" fill="#F24F66"/>
<path d="M230.402 186.852L232.627 190.149L236.865 189.294L232.144 182.228L231.229 182.831C229.89 183.714 229.52 185.513 230.402 186.852Z" fill="#F2566E"/>
<path d="M234.571 133.743C230.171 127.329 219.086 129.04 219.374 139.318L219.379 139.41C219.353 140.713 219.395 142.04 219.055 143.266C218.882 143.886 218.583 144.463 218.132 144.878C217.684 145.299 217.102 145.547 216.49 145.677C215.872 145.814 215.205 145.849 214.518 145.986C213.826 146.127 213.152 146.38 212.541 146.743C211.317 147.456 210.316 148.625 209.858 150.009C208.981 152.754 209.683 155.929 211.75 157.993C212.269 158.5 212.872 158.931 213.534 159.239C214.194 159.56 214.944 159.681 215.552 159.803C216.832 160.082 218.126 160.452 219.446 160.712L219.484 160.598C218.267 160.036 217.067 159.447 215.778 159.002C215.106 158.766 214.529 158.629 214.01 158.306C213.489 158.001 213.009 157.623 212.605 157.167C211.791 156.263 211.199 155.149 210.86 153.958C210.523 152.77 210.454 151.484 210.789 150.302C211.118 149.126 211.912 148.102 212.96 147.421C213.481 147.079 214.063 146.831 214.672 146.678C215.287 146.524 215.958 146.46 216.637 146.28C217.318 146.105 217.988 145.761 218.485 145.233C218.988 144.706 219.275 144.028 219.418 143.357C219.517 142.878 219.561 142.4 219.577 141.924C219.696 143.84 219.53 145.786 217.56 146.521C216.424 146.946 215.317 146.946 214.262 147.651C213.227 148.341 212.406 149.363 212.005 150.545C210.769 154.181 213.989 158.883 217.775 159.284C219.341 159.451 220.908 159.83 222.457 160.108C222.89 160.186 228.983 161.435 229.033 161.288L236.082 140.424L234.571 133.743" fill="#255CB2"/>
<path d="M234.235 185.359L248.529 175.385L246.534 169.863L232.144 182.228L234.235 185.359Z" fill="white"/>
<path d="M244.712 174.019C245.389 175.451 247.098 176.062 248.529 175.385C249.96 174.708 250.571 172.999 249.894 171.568C249.217 170.137 247.509 169.526 246.078 170.203C244.647 170.88 244.035 172.589 244.712 174.019Z" fill="white"/>
<path d="M245.426 175.053L249.501 171.021L237.732 157.786C236.396 155.983 233.772 155.782 232.177 157.361C230.581 158.94 230.754 163.328 232.543 164.683L245.426 175.053" fill="white"/>
<path d="M225.51 156.76L230.329 157.168L231.183 147.073L226.365 146.665L225.51 156.76" fill="#F2566E"/>
<path d="M203.579 161.628C201.999 161.734 200.805 163.1 200.91 164.68C201.016 166.259 202.383 167.454 203.962 167.348C205.542 167.242 206.737 165.876 206.63 164.296C206.524 162.717 205.158 161.522 203.579 161.628Z" fill="white"/>
<path d="M201.774 162.049L204.677 167.208L222.424 162.047C224.598 161.492 225.778 157.378 224.921 155.303C224.065 153.229 221.57 152.394 219.637 153.537L201.774 162.049" fill="white"/>
<path d="M228.929 181.953L237.911 159.916C238.364 158.112 237.148 156.315 235.306 156.065L222.413 153.142C220.57 152.892 218.919 154.3 218.876 156.16L214.463 180.191L228.929 181.953" fill="white"/>
<path d="M227.482 134.922C225.994 136.805 223.316 137.598 222.686 139.324L222.552 140.121L222.552 140.232L222.537 140.207L222.129 142.624C221.612 145.684 223.674 148.583 226.733 149.099C229.792 149.616 232.692 147.555 233.208 144.495L233.668 141.775C233.351 139.004 228.291 138.79 227.482 134.922" fill="#F2566E"/>
<path d="M232.624 143.205C232.504 143.915 232.982 144.589 233.693 144.708C234.403 144.829 235.077 144.35 235.196 143.639C235.316 142.929 234.837 142.255 234.128 142.136C233.417 142.016 232.744 142.494 232.624 143.205Z" fill="#F2566E"/>
<path d="M220.815 180.965L227.277 196.917L221.102 271.447H216.36L210.774 196.454L214.463 180.191L220.815 180.965Z" fill="#255CB2"/>
<path d="M220.815 180.965V196.917L249.901 271.447H253.468L237.905 194.104L228.929 181.953L220.815 180.965Z" fill="#4A73C2"/>
<path d="M219.017 275.339H217.034V271.447H219.604L219.017 275.339Z" fill="#F2566E"/>
<path d="M216.966 274.457L218.127 274.966L219.204 274.457L220.172 277.614H211.204L214.575 276.036L216.966 274.457" fill="#20254D"/>
<path d="M252.25 275.339H254.232L253.058 271.447H250.487L252.25 275.339Z" fill="#F2566E"/>
<path d="M254.3 274.457L253.14 274.966L252.062 274.457L251.095 277.614H260.063L256.691 276.036L254.3 274.457Z" fill="#20254D"/>
<path d="M223.201 165.159C223.201 167.407 221.378 169.229 219.131 169.229C216.882 169.229 215.06 167.407 215.06 165.159C215.06 162.911 216.882 161.089 219.131 161.089C221.378 161.089 223.201 162.911 223.201 165.159Z" fill="white"/>
<path d="M222.785 153.25L223.3 161.991L230.852 154.295L222.785 153.25Z" fill="#F2566E"/>
<path d="M239.228 135.597C238.582 134.774 237.793 134.109 236.919 133.648C235.5 132.901 233.895 132.983 232.593 131.86L233.61 142.118C235.478 141.583 235.367 145.608 233.208 144.495C233.208 144.495 228.929 146.327 227.305 150.332C226.192 153.022 226.006 156.16 226.298 157.956C226.82 161.172 229.55 162.837 232.646 161.891C234.496 161.326 236.001 159.928 237.068 158.315C240.812 152.657 243.307 143.365 240.104 136.98C239.854 136.482 239.56 136.018 239.228 135.597Z" fill="#255CB2"/>
<path d="M204.814 134.362L204.71 135.013C204.491 136.374 205.416 137.654 206.776 137.873L207.84 138.044C209.2 138.263 210.48 137.338 210.699 135.978L210.804 135.327L204.814 134.362Z" fill="#F2566E"/>
<path d="M227.653 143.133C227.32 142.923 225.107 142.511 224.839 142.659C224.552 142.82 224.434 143.198 224.51 143.518C224.587 143.837 224.823 144.1 225.095 144.285C225.712 144.706 226.554 144.774 227.231 144.458C227.488 144.337 227.731 144.154 227.842 143.893C227.953 143.632 227.893 143.285 227.653 143.133Z" fill="white"/>
<path d="M5.86331 277.887H344.746C344.898 277.887 345.019 277.766 345.019 277.614C345.019 277.464 344.898 277.342 344.746 277.342H5.86331C5.71265 277.342 5.59042 277.464 5.59042 277.614C5.59042 277.766 5.71265 277.887 5.86331 277.887Z" fill="#20254D"/>
</svg>
