<svg width="391" height="391" viewBox="0 0 391 391" fill="none" xmlns="http://www.w3.org/2000/svg">
<path d="M0 391H391V7.03533e-05H0V391Z" fill="white"/>
<path d="M0 391H391V7.03533e-05H0V391Z" fill="white"/>
<path fill-rule="evenodd" clip-rule="evenodd" d="M64.4074 92.5123C67.9115 92.5123 70.7517 89.6721 70.7517 86.168C70.7517 82.6638 67.9115 79.8228 64.4074 79.8228C60.904 79.8228 58.063 82.6638 58.063 86.168C58.063 89.6721 60.904 92.5123 64.4074 92.5123ZM286.899 63.7535C291.47 63.7535 295.178 60.0468 295.178 55.4745C295.178 50.9021 291.47 47.1955 286.899 47.1955C282.326 47.1955 278.62 50.9021 278.62 55.4745C278.62 60.0468 282.326 63.7535 286.899 63.7535V63.7535ZM82.7163 310.978C53.1731 310.978 29.0015 286.806 29.0015 257.262C29.0015 227.719 53.1731 203.548 82.7155 203.548H82.7163C95.208 203.548 105.428 193.327 105.428 180.836C105.428 168.344 95.2072 158.124 82.7155 158.124H80.013C67.0255 158.124 56.3997 147.498 56.3997 134.511C56.3997 121.524 67.0255 110.898 80.013 110.898H88.3045C93.3601 110.898 97.4969 106.761 97.4969 101.705C97.4969 96.6491 93.3601 92.5123 88.3045 92.5123H82.2119C78.7219 92.5123 75.8668 89.6573 75.8668 86.168V86.1672C75.8668 82.6779 78.7227 79.8228 82.2119 79.8228H123.171C128.653 79.8228 133.14 75.3373 133.14 69.8539C133.14 64.3705 128.653 59.885 123.171 59.885H110.924C107.434 59.885 104.579 57.0291 104.579 53.5398C104.579 50.0505 107.434 47.1955 110.924 47.1955H265.714C270.267 47.1955 273.993 50.9209 273.993 55.4745C273.993 60.0273 270.267 63.7527 265.714 63.7527H240.594C233.438 63.7527 227.584 69.6068 227.584 76.7613V76.7621C227.584 83.9166 233.438 89.7706 240.594 89.7706H326.32C330.873 89.7706 334.598 93.4961 334.598 98.0489V98.0497C334.598 102.602 330.873 106.328 326.32 106.328H318.369C311.771 106.328 306.373 111.726 306.373 118.323V118.324C306.373 124.921 311.771 130.319 318.369 130.319H329.189C346.135 130.319 360.001 144.185 360.001 161.13V161.131C360.001 178.077 346.135 191.943 329.189 191.943H325.662C309.362 191.943 296.026 205.28 296.026 221.578C296.026 237.879 309.362 251.215 325.662 251.215H333.3C349.734 251.215 363.181 264.662 363.181 281.096C363.181 297.531 349.734 310.978 333.3 310.978H82.7163Z" fill="#FCE1CF"/>
<path fill-rule="evenodd" clip-rule="evenodd" d="M82.716 310.978C79.3221 310.978 76.0009 310.656 72.7783 310.046L253.861 123.281L233.005 310.978H82.716Z" fill="#FDF1E7"/>
<path fill-rule="evenodd" clip-rule="evenodd" d="M210.014 70.1379H180.328C178.171 70.1379 176.407 71.9021 176.407 74.0588V90.2251V91.4216V101.713C176.407 101.894 176.51 102.048 176.678 102.118C176.845 102.187 177.027 102.151 177.154 102.022L183.835 95.3418H210.014C212.17 95.3418 213.934 93.5783 213.934 91.4216V74.0588C213.934 71.9021 212.17 70.1379 210.014 70.1379Z" fill="#F5AC80"/>
<path fill-rule="evenodd" clip-rule="evenodd" d="M287.999 105.89H210.981V178.339H287.999V105.89Z" fill="#F5AC80"/>
<path fill-rule="evenodd" clip-rule="evenodd" d="M82.023 225.544C74.0216 217.397 68.0674 227.746 68.8995 238.135C69.73 248.524 79.1312 285.553 76.2542 298.153C75.1391 303.037 76.1909 302.797 78.0043 299.698C87.0536 284.244 93.0383 236.761 82.023 225.544Z" fill="#EC9665"/>
<path fill-rule="evenodd" clip-rule="evenodd" d="M75.8598 301.679C76.0115 302.163 76.4291 301.953 77.0171 301.199C87.6539 272.333 76.6027 227.548 76.5683 227.406C76.508 227.157 76.2594 227.007 76.013 227.066C75.7659 227.126 75.615 227.375 75.6744 227.622C75.7096 227.766 86.911 273.162 75.8598 301.679Z" fill="#F5AC80"/>
<path fill-rule="evenodd" clip-rule="evenodd" d="M62.2817 243.5C53.8486 239.032 51.7231 248.78 55.0099 256.845C58.2974 264.91 75.1432 292.028 76.0347 302.791C76.3811 306.963 77.1585 306.506 77.82 303.58C81.1224 288.983 73.8897 249.649 62.2817 243.5Z" fill="#F5AC80"/>
<path fill-rule="evenodd" clip-rule="evenodd" d="M76.6123 305.699C76.8555 306.046 77.1347 305.774 77.4123 305.025C78.59 279.345 58.4707 246.466 58.4066 246.36C58.2971 246.179 58.0601 246.121 57.8795 246.231C57.6981 246.341 57.6402 246.577 57.7497 246.759C57.8138 246.866 78.2084 280.194 76.6123 305.699Z" fill="#EC9665"/>
<path fill-rule="evenodd" clip-rule="evenodd" d="M97.9212 254.768C106.094 251.197 107.39 260.431 103.759 267.716C100.128 275 82.522 299.088 80.933 309.054C80.3176 312.918 79.6255 312.438 79.2142 309.664C77.1638 295.829 86.6713 259.682 97.9212 254.768Z" fill="#F5AC80"/>
<path fill-rule="evenodd" clip-rule="evenodd" d="M80.1909 311.725C79.9391 312.031 79.6983 311.758 79.4918 311.039C80.2011 287.025 101.263 257.8 101.331 257.707C101.446 257.545 101.67 257.507 101.832 257.622C101.993 257.738 102.03 257.962 101.915 258.123C101.848 258.218 80.4975 287.843 80.1909 311.725Z" fill="#EC9665"/>
<path fill-rule="evenodd" clip-rule="evenodd" d="M69.2101 289.503H93.155C93.8713 289.503 94.457 290.089 94.457 290.806V296.718C94.457 297.434 93.8713 298.02 93.155 298.02H69.2101C68.493 298.02 67.9081 297.434 67.9081 296.718V290.806C67.9081 290.089 68.493 289.503 69.2101 289.503Z" fill="#B95A53"/>
<path fill-rule="evenodd" clip-rule="evenodd" d="M73.3174 294.313H89.0481L93.1552 298.02L89.8004 310.944H81.1828H72.5651L69.2103 298.02L73.3174 294.313Z" fill="#B95A53"/>
<path fill-rule="evenodd" clip-rule="evenodd" d="M93.1553 298.02L92.4656 300.676H69.8994L69.2097 298.02H93.1553Z" fill="#400F3C"/>
<path fill-rule="evenodd" clip-rule="evenodd" d="M131.266 113.364C131.266 113.364 117.989 107.973 111.284 121.64C104.58 135.307 100.599 155.065 114.286 177.602C127.973 200.137 96.7416 217.675 109.142 242.647C126.463 277.531 161.541 283.955 184.405 274.37C196.591 269.262 220.242 254.895 206.355 223.726C198.19 205.401 182.886 192.834 198.485 172.542C214.084 152.25 191.207 132.429 179.08 123.578C175.609 121.044 173.666 117.777 172.435 114.368C160.159 80.3641 134.964 99.577 131.266 113.364Z" fill="#643860"/>
<path fill-rule="evenodd" clip-rule="evenodd" d="M108.611 127.891C108.31 128.716 108.022 129.556 107.751 130.413C134.196 154.404 156.888 131.747 164.673 100.761C160.206 96.0757 155.209 94.7768 150.451 95.551C152.627 129.513 125.935 144.688 108.611 127.891Z" fill="#6A291F"/>
<path fill-rule="evenodd" clip-rule="evenodd" d="M106.785 133.811C103.713 146.043 104.25 161.074 114.286 177.601C127.973 200.137 94.5631 218.881 109.142 242.647C118.838 258.458 139.352 253.902 152.893 248.33C150.306 212.095 137.18 162.241 137.18 162.241L162.867 146.531L161.428 124.503C127.384 171.477 106.795 133.829 106.785 133.811Z" fill="#400F3C"/>
<path fill-rule="evenodd" clip-rule="evenodd" d="M165.796 241.585C166.281 241.195 167.455 240.939 169.099 240.784H169.1L192.048 232.374C192.048 232.374 203.691 227.367 190.505 210.385C177.317 193.401 184.037 184.911 181.659 168.536C179.283 152.16 135.869 165.377 135.869 165.377L127.883 159.952C127.883 159.952 113.891 163.7 119.499 182.294C125.108 200.888 108.007 221.953 126.993 234.967C141.638 245.003 158.74 243.016 165.796 241.585Z" fill="#400F3C"/>
<path fill-rule="evenodd" clip-rule="evenodd" d="M199.053 183.046C199.053 183.046 195.887 181.607 195.455 178.01C195.024 174.411 187.562 175.378 187.192 176.383C186.82 177.386 185.86 178.681 185.86 180.552C185.86 182.422 184.847 182.889 184.847 182.889C189.561 186.519 190.579 183.653 195.599 188.611C197.23 190.221 198.429 185.253 199.053 183.046Z" fill="#E68694"/>
<path fill-rule="evenodd" clip-rule="evenodd" d="M165.914 202.188C165.495 202.188 160.086 202.986 160.086 202.986L147.293 199.07L143.106 202.188C143.106 202.188 142.728 203.98 142.645 206.004C142.563 208.028 147.551 211.496 154.049 211.245C160.547 210.994 167.52 206.692 167.325 206.033C167.13 205.375 165.914 202.188 165.914 202.188Z" fill="#DB4141"/>
<path fill-rule="evenodd" clip-rule="evenodd" d="M168.568 212.642L172.961 207.606C172.961 207.606 195.46 217.97 207.932 215.092C220.405 212.214 195.224 190.376 193.54 188.033C191.857 185.692 195.651 184.916 196.803 183.431C197.955 181.943 198.422 179.945 199.526 180.329C200.629 180.713 226.738 203.481 225.778 221.521C224.817 239.56 179.289 236.858 175.132 233.999C170.975 231.136 168.568 212.642 168.568 212.642Z" fill="#EA5756"/>
<path fill-rule="evenodd" clip-rule="evenodd" d="M211.342 212.08L211.344 212.081C213.009 206.164 202.132 195.107 201.293 189.992C200.861 187.352 202.125 185.161 203.449 183.656C201.277 181.627 199.773 180.415 199.526 180.329C198.422 179.945 197.955 181.943 196.803 183.43C195.651 184.917 191.857 185.692 193.54 188.034C194.932 189.969 212.368 205.22 211.342 212.08ZM168.568 212.642L172.961 207.606C172.961 207.606 178.08 209.962 184.786 212.117C186.52 216.998 189.627 223.037 194.92 226.047C204.646 231.582 220.914 230.912 225.777 221.52C224.817 239.56 179.29 236.859 175.132 233.998C170.975 231.137 168.568 212.642 168.568 212.642" fill="#DB4141"/>
<path fill-rule="evenodd" clip-rule="evenodd" d="M200.089 179.532C200.089 179.532 201.882 180.891 202.386 181.478C202.889 182.066 201.127 184.916 199.409 187.306C197.69 189.696 196.012 190.828 195.551 190.912C195.09 190.995 193.958 189.696 193.958 189.696L200.089 179.532Z" fill="#FFF6F0"/>
<path fill-rule="evenodd" clip-rule="evenodd" d="M183.522 183.012C183.522 183.012 182.48 180.976 182.049 178.242C181.617 175.508 179.506 174.74 177.586 177.618C175.667 180.498 177.107 183.712 183.522 183.012Z" fill="#E68694"/>
<path fill-rule="evenodd" clip-rule="evenodd" d="M182.116 147C182.921 147.431 204.533 170.625 205.836 171.936C207.14 173.245 206.728 174.245 204.678 177.164C202.628 180.084 198.397 185.979 197.358 187.761C196.549 189.147 194.859 190.523 193.618 190.423C193.264 190.394 190.761 190.533 190.51 190.229C189.385 188.862 170.126 166.338 169.793 165.752C169.461 165.166 168.666 163.518 170.883 160.689C172.995 157.994 173.896 156.335 179.25 148.619C179.533 148.211 177.937 146.888 178.466 146.706C179.5 146.349 181.449 146.642 182.116 147Z" fill="#643860"/>
<path fill-rule="evenodd" clip-rule="evenodd" d="M179.299 146.86C180.103 147.292 201.716 170.486 203.019 171.796C204.323 173.106 203.911 174.105 201.86 177.024C199.811 179.944 195.58 185.839 194.54 187.621C193.501 189.403 191.004 191.168 189.878 189.801C188.752 188.433 167.308 166.198 166.976 165.612C166.644 165.026 165.848 163.378 168.065 160.549C170.177 157.854 171.079 156.195 176.433 148.479C177.064 147.569 178.09 146.212 179.299 146.86Z" fill="#400F3C"/>
<path fill-rule="evenodd" clip-rule="evenodd" d="M189.655 189.547C187.123 186.744 167.296 166.174 166.976 165.612C166.643 165.027 165.848 163.378 168.065 160.549C170.177 157.854 171.08 156.195 176.433 148.479C176.682 148.12 176.992 147.692 177.351 147.345C181.389 151.36 199.1 170.36 200.276 171.542C201.58 172.852 201.166 173.852 199.118 176.771C197.068 179.69 192.837 185.586 191.797 187.368C191.308 188.206 190.496 189.041 189.655 189.547Z" fill="#400F3C"/>
<path fill-rule="evenodd" clip-rule="evenodd" d="M194.924 178.639C195.408 177.932 196.351 177.878 197.029 178.517C197.706 179.155 197.863 180.246 197.379 180.952C196.894 181.659 195.951 181.713 195.273 181.074C194.595 180.435 194.439 179.345 194.924 178.639Z" fill="#643860"/>
<path fill-rule="evenodd" clip-rule="evenodd" d="M171.606 160.571C171.667 160.513 173.99 157.085 174.089 156.945C174.188 156.805 174.156 156.74 173.997 156.578C173.837 156.416 173.507 156.091 173.426 155.985C173.345 155.88 173.152 155.82 173.066 155.96C172.979 156.1 170.669 159.448 170.644 159.503C170.619 159.559 170.559 159.71 170.731 159.86C170.896 160.003 170.966 160.103 171.383 160.534C171.433 160.585 171.513 160.658 171.606 160.571Z" fill="#643860"/>
<path fill-rule="evenodd" clip-rule="evenodd" d="M174.7 156.063C174.761 156.005 175.284 155.2 175.384 155.06C175.483 154.919 175.451 154.854 175.291 154.693C175.132 154.531 174.801 154.205 174.721 154.1C174.639 153.994 174.446 153.935 174.36 154.075C174.274 154.214 173.764 154.94 173.739 154.995C173.714 155.051 173.654 155.202 173.826 155.352C173.99 155.495 174.061 155.595 174.478 156.026C174.527 156.077 174.608 156.149 174.7 156.063Z" fill="#643860"/>
<path fill-rule="evenodd" clip-rule="evenodd" d="M180.473 151.972C181.094 152.306 196.695 169.033 197.701 170.045C198.709 171.057 198.39 171.83 196.807 174.085C195.223 176.341 191.954 180.896 191.15 182.274C190.347 183.65 188.418 185.013 187.547 183.957C186.678 182.901 171.208 166.914 170.952 166.462C170.694 166.01 170.08 164.736 171.793 162.549C173.425 160.467 174.122 159.185 178.258 153.223C178.746 152.52 179.54 151.471 180.473 151.972Z" fill="#954E82"/>
<path fill-rule="evenodd" clip-rule="evenodd" d="M195.792 172.729C195.912 173.199 195.849 173.395 195.722 173.431C195.63 173.458 195.501 173.408 195.381 173.32C195.256 173.228 195.143 173.096 195.092 172.964C195.032 172.811 195.061 172.657 195.265 172.577C195.476 172.495 195.609 172.594 195.758 172.705L195.792 172.729ZM191.77 175.453C191.746 175.295 191.738 175.178 191.752 175.142L191.77 175.453ZM191.752 175.142L191.753 175.14L191.752 175.142ZM191.753 175.14C191.768 175.11 192.297 175.196 192.757 175.272L191.753 175.14ZM192.757 175.272L193.443 175.366C193.335 175.368 193.059 175.322 192.757 175.272V175.272ZM193.443 175.366C193.475 175.365 193.502 175.337 193.501 175.304C193.5 175.271 193.473 175.244 193.44 175.244C193.343 175.246 193.073 175.202 192.777 175.153C192.275 175.07 191.7 174.975 191.645 175.086L191.642 175.092L193.443 175.366ZM191.955 176.304L191.979 176.344L192.183 176.667C192.145 176.705 192.116 176.735 192.099 176.749C192.069 176.696 192.014 176.521 191.955 176.304V176.304ZM193.095 175.833C193.157 175.891 193.223 175.954 193.285 176.018C193.444 176.184 193.579 176.349 193.543 176.398C193.5 176.453 193.446 176.517 193.385 176.592C193.177 176.84 192.887 177.189 192.783 177.425C192.701 177.296 192.509 176.958 192.334 176.68C192.386 176.628 192.442 176.569 192.5 176.505C192.702 176.286 192.942 176.012 193.095 175.833ZM192.898 175.503C192.871 175.483 192.833 175.487 192.812 175.515C192.793 175.54 192.797 175.579 192.824 175.599L192.836 175.609C192.869 175.634 192.931 175.687 193.007 175.753C192.859 175.924 192.616 176.2 192.411 176.423L192.269 176.576L192.081 176.279L192.055 176.234C192.019 176.165 192.005 176.14 191.915 176.152C191.855 175.916 191.8 175.657 191.77 175.453L191.649 175.47C191.682 175.691 191.744 175.977 191.811 176.231V176.233L191.814 176.244L191.836 176.326C191.914 176.613 192 176.844 192.058 176.873C192.072 176.88 192.086 176.882 192.099 176.88L192.104 176.879C192.115 176.877 192.125 176.872 192.132 176.865C192.16 176.846 192.2 176.813 192.247 176.767C192.429 177.056 192.65 177.404 192.747 177.539C192.748 177.567 192.767 177.59 192.794 177.597C192.829 177.603 192.861 177.583 192.867 177.55C192.908 177.353 193.247 176.947 193.478 176.67L193.641 176.47C193.725 176.358 193.568 176.139 193.371 175.935C193.307 175.867 193.238 175.801 193.174 175.741C193.218 175.687 193.246 175.654 193.249 175.648C193.264 175.619 193.251 175.582 193.221 175.567C193.192 175.552 193.156 175.565 193.141 175.594C193.138 175.598 193.119 175.622 193.086 175.662C193.009 175.593 192.944 175.54 192.911 175.514L192.898 175.503ZM189 180.178L189.069 180.227C189.036 180.232 189.006 180.21 189 180.178ZM189.015 180.666C188.875 180.726 188.721 180.751 188.55 180.728L188.548 180.727C188.487 180.692 188.384 180.551 188.299 180.36C188.213 180.165 188.152 179.924 188.182 179.7L188.183 179.698C188.195 179.61 188.22 179.524 188.265 179.445C188.313 179.357 188.396 179.267 188.481 179.21C188.524 179.181 188.565 179.161 188.601 179.156C188.628 179.151 188.651 179.155 188.668 179.171C188.679 179.181 188.69 179.199 188.698 179.224L188.699 179.226C188.762 179.419 188.816 179.572 188.859 179.697C188.937 179.922 188.98 180.044 188.999 180.176L189 180.178C189.018 180.298 189.02 180.433 189.015 180.666ZM190.876 180.143C190.858 180.171 190.867 180.208 190.894 180.225C190.922 180.243 190.96 180.236 190.978 180.207C191.246 179.786 191.215 179.394 191.065 179.137C191.013 179.046 190.946 178.971 190.871 178.918C190.796 178.862 190.71 178.828 190.627 178.819H190.625C190.466 178.804 190.308 178.876 190.205 179.066C190.166 179.138 190.118 179.235 190.066 179.339C189.846 179.777 189.561 180.347 189.137 180.602C189.141 180.401 189.138 180.275 189.12 180.16L189.12 180.158C189.098 180.016 189.055 179.891 188.973 179.656C188.932 179.539 188.881 179.39 188.815 179.188L188.814 179.186C188.799 179.142 188.777 179.107 188.751 179.082C188.704 179.038 188.645 179.025 188.581 179.035C188.526 179.045 188.468 179.071 188.413 179.11C188.313 179.178 188.216 179.283 188.159 179.386C188.107 179.479 188.077 179.579 188.062 179.681L188.062 179.684C188.028 179.934 188.095 180.197 188.188 180.408C188.283 180.623 188.41 180.788 188.488 180.832C188.503 180.841 188.518 180.846 188.533 180.848L188.535 180.849C188.71 180.872 188.868 180.852 189.013 180.799L189.002 181.201C189 181.309 189.131 181.43 189.301 181.487C189.368 181.509 189.441 181.523 189.514 181.523C189.588 181.523 189.665 181.509 189.735 181.477C189.914 181.395 190.056 181.198 190.056 180.812C190.056 180.713 190.06 180.623 190.065 180.537C190.069 180.447 190.074 180.358 190.074 180.262C190.074 180.229 190.046 180.202 190.013 180.202C189.979 180.202 189.952 180.229 189.952 180.262C189.952 180.358 189.947 180.444 189.943 180.53C189.939 180.621 189.935 180.713 189.935 180.812C189.935 181.14 189.824 181.303 189.684 181.366C189.632 181.391 189.572 181.401 189.514 181.401C189.454 181.401 189.393 181.39 189.339 181.373C189.217 181.331 189.123 181.26 189.124 181.203L189.135 180.745C189.623 180.494 189.936 179.868 190.173 179.393C190.221 179.3 190.265 179.212 190.312 179.124C190.388 178.984 190.501 178.928 190.613 178.94C190.677 178.947 190.741 178.973 190.8 179.016C190.861 179.06 190.917 179.122 190.961 179.197C191.09 179.422 191.115 179.767 190.876 180.143V180.143ZM196.338 172.47C196.326 172.502 196.342 172.537 196.374 172.549C196.404 172.56 196.439 172.545 196.452 172.513C196.562 172.215 196.501 171.981 196.379 171.842C196.302 171.754 196.199 171.703 196.097 171.698C195.991 171.691 195.888 171.732 195.811 171.825C195.706 171.954 195.656 172.187 195.742 172.543C195.596 172.442 195.448 172.376 195.221 172.465C194.935 172.577 194.896 172.793 194.979 173.008C195.039 173.162 195.168 173.314 195.31 173.417C195.457 173.526 195.624 173.585 195.756 173.548C195.928 173.499 196.032 173.291 195.938 172.828C196.047 172.892 196.174 172.94 196.341 172.94C196.374 172.94 196.402 172.912 196.402 172.879C196.402 172.845 196.374 172.818 196.341 172.818C196.151 172.818 196.016 172.741 195.898 172.657L195.882 172.597C195.778 172.237 195.814 172.014 195.906 171.902C195.954 171.842 196.022 171.816 196.09 171.819C196.161 171.823 196.233 171.859 196.288 171.921C196.385 172.031 196.43 172.222 196.338 172.47Z" fill="#EE788F"/>
<path fill-rule="evenodd" clip-rule="evenodd" d="M190.957 331.261C190.955 328.942 190.942 326.67 190.914 324.462C190.679 306.156 185.671 291.055 184.028 284.472C183.697 283.149 150.532 283.355 143.931 289.299C143.051 288.963 142.186 288.924 141.347 289.252C141.347 289.252 141.484 290.78 139.413 293.66C137.343 296.539 128.954 306.202 128.458 318.706C128.389 320.432 128.225 324.869 127.987 331.261H190.957Z" fill="#400F3C"/>
<path fill-rule="evenodd" clip-rule="evenodd" d="M118.688 222.831C126.427 211.671 130.076 210.738 135.915 208.981L166.229 206.07C175.645 206.671 179.741 212.046 183.221 218.586C190.485 232.242 198.739 241.001 187.389 256.311C187.158 256.628 185.618 281.237 185.725 283.743C186.334 298.003 140.129 294.036 139.911 287.262C138.818 253.333 122.768 253.782 118.688 222.831Z" fill="white"/>
<path fill-rule="evenodd" clip-rule="evenodd" d="M126.141 213.882C129.548 210.835 132.315 210.065 135.915 208.981L149.804 207.647C153.454 211.583 155.589 215.614 152.86 216.925C146.018 220.213 140.752 227.389 144.777 238.793C148.801 250.197 155.677 254.055 160.373 254.055C165.069 254.055 179.491 253.216 185.529 251.539C191.407 249.906 192.855 243.678 192.927 243.351C192.615 247.255 190.99 251.453 187.388 256.311C185.561 258.986 176.137 260.763 164.565 260.763C152.993 260.763 149.304 270.49 150.143 283.963C150.362 287.495 151.448 290.359 152.929 292.661C145.63 291.634 139.988 289.618 139.911 287.262C138.833 253.813 123.219 253.775 118.869 224.122C121.295 220.68 123.832 217.162 126.141 213.882Z" fill="#FDF1E7"/>
<path fill-rule="evenodd" clip-rule="evenodd" d="M168.951 206.4C176.474 207.782 180.852 212.714 183.976 218.587C184.806 220.148 184.895 221.646 185.721 223.097C185.721 223.097 182.015 217.618 179.835 214.809C177.654 211.999 171.427 209.515 170.138 209.227C169.242 209.026 169.009 207.381 168.951 206.4Z" fill="#EA5756"/>
<path fill-rule="evenodd" clip-rule="evenodd" d="M118.688 222.831C126.427 211.671 130.076 210.738 135.915 208.981L143.522 208.251C145.645 209.699 147.704 211.592 145.52 212.418C141.746 213.844 136.882 223.57 135.876 232.039C134.87 240.508 131.557 249.06 131.557 249.06L124.303 242.81C121.891 237.638 119.825 231.453 118.688 222.831Z" fill="#EA5756"/>
<path fill-rule="evenodd" clip-rule="evenodd" d="M127.315 212.9C130.208 210.651 132.737 209.938 135.915 208.981L143.523 208.251C145.644 209.699 147.704 211.592 145.519 212.418C141.746 213.843 136.882 223.571 135.877 232.04C134.87 240.509 131.557 249.06 131.557 249.06L125.81 244.107C127.755 239.14 129.241 234.507 129.683 230.661C130.659 222.155 128.988 216.364 127.315 212.9Z" fill="#DB4141"/>
<path fill-rule="evenodd" clip-rule="evenodd" d="M147.045 183.929L147.292 189.714V203.365C147.292 205.165 144.435 208.422 139.203 208.666C136.697 208.782 141.236 210.821 146.941 214.089C159.037 221.021 170.228 226.033 170.295 210.914C170.306 208.706 169.557 206.923 168.118 206.263C167.635 206.041 167.049 206.019 166.519 205.844C165.489 205.506 165.137 204.95 164.505 204.261C162.526 202.101 162.615 192.471 164.595 189.953C166.575 187.435 147.045 183.929 147.045 183.929Z" fill="#E68694"/>
<path fill-rule="evenodd" clip-rule="evenodd" d="M175.49 153.742C171.137 154.458 168.188 158.566 168.904 162.92C169.619 167.272 173.728 170.22 178.08 169.506C182.433 168.79 185.381 164.682 184.666 160.329C183.951 155.976 179.842 153.027 175.49 153.742Z" fill="#E68694"/>
<path fill-rule="evenodd" clip-rule="evenodd" d="M123.585 161.924C119.232 162.639 116.284 166.748 116.999 171.1C117.715 175.454 121.823 178.402 126.175 177.687C130.528 176.972 133.477 172.862 132.761 168.51C132.046 164.157 127.937 161.208 123.585 161.924Z" fill="#E68694"/>
<path fill-rule="evenodd" clip-rule="evenodd" d="M145.833 117.333H145.833C130.985 119.773 120.833 133.918 123.274 148.766L127.306 173.3C129.746 188.149 143.89 198.3 158.738 195.86H158.739C173.587 193.42 183.739 179.275 181.299 164.427L177.267 139.894C174.826 125.044 160.681 114.893 145.833 117.333Z" fill="#F5B8C2"/>
<path fill-rule="evenodd" clip-rule="evenodd" d="M124.003 136.732C122.894 140.529 122.592 144.62 123.273 148.765L127.306 173.301C129.746 188.149 143.89 198.3 158.738 195.86L158.74 195.859C159.621 195.714 160.484 195.527 161.33 195.302C131.735 195.227 124.807 161.554 136.913 158.085C151.87 153.798 163.709 139.467 163.709 139.467C166.737 143.36 173.645 145.362 178.321 146.31L177.266 139.892C175.076 126.563 163.452 117.019 150.355 116.973C146.044 118.203 142.223 119.652 140.26 119.975C135.11 120.821 128.845 130.424 124.958 135.622C124.718 135.943 124.393 136.313 124.003 136.732Z" fill="#F3A4B0"/>
<path fill-rule="evenodd" clip-rule="evenodd" d="M174.065 149.029L166.597 150.256C165.807 150.385 165.268 151.139 165.398 151.928C165.527 152.717 166.279 153.258 167.07 153.128L174.537 151.901C175.327 151.771 175.866 151.019 175.737 150.228C175.607 149.438 174.854 148.899 174.065 149.029Z" fill="#400F3C"/>
<path fill-rule="evenodd" clip-rule="evenodd" d="M143.908 153.985L136.442 155.211C135.651 155.341 135.112 156.094 135.241 156.884C135.371 157.674 136.123 158.214 136.913 158.084L144.381 156.857C145.17 156.727 145.71 155.975 145.58 155.185C145.45 154.394 144.698 153.855 143.908 153.985Z" fill="#400F3C"/>
<path fill-rule="evenodd" clip-rule="evenodd" d="M174.853 166.39C172.695 166.745 171.234 168.781 171.589 170.938C171.943 173.095 173.979 174.557 176.137 174.203C178.293 173.848 179.755 171.811 179.401 169.654C179.046 167.497 177.009 166.035 174.853 166.39Z" fill="#E68694"/>
<path fill-rule="evenodd" clip-rule="evenodd" d="M141.251 171.912C139.093 172.267 137.633 174.303 137.987 176.46C138.341 178.617 140.377 180.079 142.534 179.724C144.691 179.37 146.153 177.333 145.798 175.177C145.444 173.02 143.408 171.558 141.251 171.912Z" fill="#E68694"/>
<path fill-rule="evenodd" clip-rule="evenodd" d="M121.955 162.372L127.352 158.997C127.352 158.997 131.618 165.512 126.573 168.84L126.021 165.479C125.744 163.792 124.591 161.938 121.955 162.372Z" fill="#400F3C"/>
<path fill-rule="evenodd" clip-rule="evenodd" d="M161.428 124.503C161.428 124.503 161.868 145.181 123.585 161.925L119.219 132.645L137.298 114.871L157.683 114.275C157.683 114.275 169.565 119.55 170.819 120.894C172.072 122.238 181.386 140.157 181.386 140.157L177.945 144.023C177.945 144.023 168.706 141.553 161.428 124.503" fill="#643860"/>
<path fill-rule="evenodd" clip-rule="evenodd" d="M161.428 124.503C161.428 124.503 161.868 145.182 123.585 161.924L121.326 146.771C130.729 150.324 144.395 148.005 161.428 124.503Z" fill="#400F3C"/>
<path fill-rule="evenodd" clip-rule="evenodd" d="M108.611 127.891C108.31 128.716 108.022 129.556 107.751 130.413C134.196 154.404 156.888 131.747 164.673 100.761C160.206 96.0757 155.209 94.7768 150.451 95.551C152.627 129.513 125.935 144.688 108.611 127.891Z" fill="#954E82"/>
<path fill-rule="evenodd" clip-rule="evenodd" d="M146.274 165.94C146.364 166.489 146.883 166.86 147.431 166.77C147.979 166.68 148.352 166.161 148.26 165.613C148.045 164.294 147.31 163.185 146.301 162.46C145.287 161.733 144.001 161.392 142.682 161.609C141.363 161.826 140.255 162.561 139.529 163.569C138.802 164.583 138.462 165.87 138.678 167.189C138.768 167.737 139.286 168.109 139.835 168.018C140.383 167.928 140.756 167.411 140.666 166.862C140.538 166.086 140.737 165.334 141.157 164.743C141.583 164.153 142.234 163.724 143.008 163.597C143.783 163.469 144.537 163.667 145.126 164.087C145.718 164.515 146.146 165.165 146.274 165.94Z" fill="#400F3C"/>
<path fill-rule="evenodd" clip-rule="evenodd" d="M173.79 161.418C173.88 161.966 174.399 162.338 174.948 162.249C175.496 162.158 175.868 161.64 175.778 161.091C175.561 159.772 174.827 158.662 173.818 157.938C172.803 157.211 171.518 156.871 170.199 157.087C168.879 157.304 167.771 158.037 167.045 159.047C166.318 160.061 165.977 161.347 166.195 162.666C166.285 163.214 166.802 163.587 167.352 163.497C167.9 163.406 168.272 162.888 168.182 162.34C168.054 161.564 168.252 160.811 168.673 160.222C169.1 159.631 169.751 159.202 170.526 159.074C171.3 158.948 172.053 159.145 172.642 159.565C173.234 159.993 173.663 160.642 173.79 161.418Z" fill="#400F3C"/>
<path fill-rule="evenodd" clip-rule="evenodd" d="M124.807 219.592C124.807 219.592 123.296 216.352 119.303 221.952C115.311 227.553 97.0777 281.589 97.4374 288.067C97.7971 294.547 119.408 309.081 126.608 313.938C126.608 313.938 127.418 314.434 127.868 313.265C128.317 312.097 130.525 309.258 132.189 308.268C134.241 307.048 127.714 303.426 126.536 302.74C121.525 299.827 113.299 291.677 111.564 285.502C109.315 277.494 129.398 254.459 131.557 249.06C133.717 243.661 136.596 228.004 124.807 219.592Z" fill="#EA5756"/>
<path fill-rule="evenodd" clip-rule="evenodd" d="M111.441 283.254C112.48 273.845 129.574 254.018 131.557 249.06C133.315 244.666 135.549 233.475 129.962 224.927C130 226.682 129.921 228.59 129.683 230.661C128.032 245.041 111.792 270.4 111.441 283.254ZM97.726 289.317C100.341 296.257 119.841 309.371 126.608 313.939C126.608 313.939 127.419 314.434 127.867 313.265C128.317 312.097 130.525 309.258 132.19 308.268C134.241 307.048 127.714 303.426 126.536 302.74C125.642 302.22 124.646 301.533 123.602 300.722C122.002 301.647 120.057 302.427 118.111 302.356C113.501 302.187 102.16 296.729 97.726 289.317" fill="#DB4141"/>
<path fill-rule="evenodd" clip-rule="evenodd" d="M132.494 306.67C132.494 306.67 132.778 306.312 131.923 305.339C131.068 304.364 129.014 303.148 127.421 302.31C125.827 301.471 122.222 302.897 120.293 305.286C118.365 307.676 118.743 308.85 119.077 309.353C119.413 309.856 121.803 311.491 121.803 311.491L132.494 306.67Z" fill="#F9F3EF"/>
<path fill-rule="evenodd" clip-rule="evenodd" d="M131.151 304.626C130.52 304.123 129.704 303.6 128.884 303.12C125.616 303.225 120.69 304.336 119.645 309.9C120.024 310.213 120.516 310.578 120.935 310.881C121.704 304.014 129.186 304.402 131.151 304.626Z" fill="#EA5756"/>
<path fill-rule="evenodd" clip-rule="evenodd" d="M164.011 176.798C163.861 176.144 164.27 175.492 164.923 175.342C165.578 175.192 166.23 175.601 166.381 176.255C166.741 177.827 166.428 179.402 165.632 180.673C164.831 181.949 163.55 182.917 161.978 183.278C160.405 183.639 158.831 183.325 157.559 182.529C156.284 181.728 155.315 180.447 154.955 178.875C154.805 178.221 155.213 177.568 155.868 177.418C156.522 177.268 157.175 177.677 157.324 178.332C157.537 179.256 158.101 180.006 158.84 180.473C159.589 180.938 160.51 181.119 161.434 180.908C162.358 180.696 163.109 180.131 163.575 179.392C164.04 178.644 164.223 177.722 164.011 176.798Z" fill="#E68694"/>
<path fill-rule="evenodd" clip-rule="evenodd" d="M127.939 320.877H135.082C139.182 320.877 142.538 317.522 142.538 313.421V313.42C142.538 309.319 139.182 305.964 135.082 305.964H127.939C123.837 305.964 120.482 309.319 120.482 313.42V313.421C120.482 317.522 123.837 320.877 127.939 320.877Z" fill="#E68694"/>
<path fill-rule="evenodd" clip-rule="evenodd" d="M163.406 201.464C164.036 201.252 164.684 201.073 165.228 201.012C166.696 200.843 170.008 203.527 170.888 205.036C171.769 206.546 171.769 214.385 170.176 217.32C168.583 220.255 166.738 221.053 166.109 220.927C165.48 220.801 165.061 220.465 165.229 219.753C165.374 219.136 168.588 205.951 163.818 203.017C163.653 202.566 163.516 202.041 163.406 201.464Z" fill="#EA5756"/>
<path fill-rule="evenodd" clip-rule="evenodd" d="M168.423 202.504C169.109 203.031 169.759 203.63 170.248 204.183C170.645 206.389 170.975 209.706 170.518 213.653C170.27 215.793 169.972 217.174 169.719 218.095C169.092 219.075 168.448 219.755 167.871 220.203C167.648 219.719 168.724 218.195 169.103 213.491C169.717 208.191 168.86 204.126 168.423 202.504Z" fill="#F9F3EF"/>
<path fill-rule="evenodd" clip-rule="evenodd" d="M165.788 220.836C165.788 220.836 164.996 221.995 162.774 221.869C160.552 221.743 155.759 221.124 148.911 216.97C142.063 212.814 138.242 208.789 132.564 210.046C132.564 210.046 128.842 211.265 126.441 213.617C126.441 213.617 127.639 204.261 134.431 200.152C139.632 197.006 143.556 198.678 147.293 199.069V203.366C147.293 204.145 146.756 205.198 145.722 206.161C145.722 206.161 148.476 207.868 151.537 211.683C154.597 215.498 161.642 218.895 164.408 219.103C167.175 219.314 165.788 220.836 165.788 220.836Z" fill="#EA5756"/>
<path fill-rule="evenodd" clip-rule="evenodd" d="M147.292 200.812V203.366C147.292 204.146 146.756 205.198 145.722 206.162C145.722 206.162 142.848 204.413 140.039 203.994C137.356 203.594 140.067 199.331 147.292 200.812Z" fill="#DB4141"/>
<path fill-rule="evenodd" clip-rule="evenodd" d="M158.361 221.149C157.053 220.805 155.539 220.297 153.83 219.548C151.821 217.957 149.385 215.885 146.717 213.311C143.531 210.237 139.615 208.362 136.279 208.118C135.203 208.039 134.192 208.132 133.298 208.408C132.431 208.677 131.668 209.122 131.053 209.76C130.694 210.133 130.382 210.574 130.128 211.086C129.531 211.389 128.877 211.754 128.233 212.183C128.575 210.766 129.196 209.635 130.029 208.773C130.816 207.957 131.785 207.388 132.881 207.049C133.949 206.717 135.134 206.606 136.38 206.698C140.03 206.965 144.279 208.981 147.703 212.285C152.32 216.739 156.212 219.658 158.361 221.149Z" fill="#F9F3EF"/>
<path fill-rule="evenodd" clip-rule="evenodd" d="M210.209 312.339H275.795C277.521 312.339 278.933 310.928 278.933 309.202C278.933 307.476 277.521 306.065 275.795 306.065H210.209C208.484 306.065 207.072 307.476 207.072 309.202C207.072 310.928 208.484 312.339 210.209 312.339Z" fill="#F9F3EF"/>
<path fill-rule="evenodd" clip-rule="evenodd" d="M191.887 312.339H210.101C211.828 312.339 213.238 310.928 213.238 309.202C213.238 307.476 211.828 306.065 210.101 306.065H191.887C190.161 306.065 188.749 307.476 188.749 309.202C188.749 310.928 190.161 312.339 191.887 312.339Z" fill="#EFD6CC"/>
<path fill-rule="evenodd" clip-rule="evenodd" d="M306.578 293.705H214.875C209.419 293.705 204.954 289.24 204.954 283.784V225.508C204.954 220.052 209.419 215.587 214.875 215.587H306.578C312.035 215.587 316.499 220.052 316.499 225.508V283.784C316.499 289.24 312.035 293.705 306.578 293.705Z" fill="#400F3C"/>
<path fill-rule="evenodd" clip-rule="evenodd" d="M285.487 279.366H239.656C236.927 279.366 234.696 277.135 234.696 274.409V245.281C234.696 242.555 236.927 240.324 239.656 240.324H285.487C288.215 240.324 290.447 242.555 290.447 245.281V274.409C290.447 277.135 288.215 279.366 285.487 279.366Z" fill="#4A1D46"/>
<path fill-rule="evenodd" clip-rule="evenodd" d="M257.419 286.199H264.035C264.822 286.199 265.465 285.555 265.465 284.769V282.266C265.465 281.48 264.822 280.836 264.035 280.836H257.419C256.631 280.836 255.988 281.48 255.988 282.266V284.769C255.988 285.555 256.631 286.199 257.419 286.199Z" fill="white"/>
<path d="M257.419 286.199H264.035C264.822 286.199 265.465 285.555 265.465 284.769V282.266C265.465 281.48 264.822 280.836 264.035 280.836H257.419C256.631 280.836 255.988 281.48 255.988 282.266V284.769C255.988 285.555 256.631 286.199 257.419 286.199Z" stroke="#342F2E" stroke-width="0.216" stroke-miterlimit="22.926" stroke-linecap="round" stroke-linejoin="round"/>
<path fill-rule="evenodd" clip-rule="evenodd" d="M255.096 315.066H266.357C269.897 315.066 272.793 312.171 272.793 308.631V278.779C272.793 275.239 269.897 272.344 266.357 272.344H255.096C251.556 272.344 248.66 275.239 248.66 278.779V308.631C248.66 312.171 251.556 315.066 255.096 315.066Z" fill="#954E82"/>
<path fill-rule="evenodd" clip-rule="evenodd" d="M256.991 288.702H266.308C267.828 288.702 269.072 287.457 269.072 285.936V281.097C269.072 279.577 267.828 278.333 266.308 278.333H256.991C255.47 278.333 254.226 279.577 254.226 281.097V285.936C254.226 287.457 255.47 288.702 256.991 288.702Z" fill="#643860"/>
<path fill-rule="evenodd" clip-rule="evenodd" d="M229.913 314.574H291.54C293.519 314.574 295.138 312.956 295.138 310.978V310.977C295.138 308.998 293.519 307.38 291.54 307.38H229.913C227.934 307.38 226.315 308.998 226.315 310.977V310.978C226.315 312.956 227.934 314.574 229.913 314.574Z" fill="#400F3C"/>
<path fill-rule="evenodd" clip-rule="evenodd" d="M211.495 225.508V283.784C211.495 289.24 215.959 293.705 221.416 293.705H214.875C209.419 293.705 204.954 289.24 204.954 283.784V229.01V225.969V225.508C204.954 222.38 206.422 219.577 208.703 217.756C210.401 216.401 212.548 215.587 214.875 215.587H221.416C215.959 215.587 211.495 220.052 211.495 225.508Z" fill="#643860"/>
<path fill-rule="evenodd" clip-rule="evenodd" d="M251.512 278.778V293.705V306.065V307.38H248.66V306.065V293.705V278.778C248.66 275.24 251.556 272.343 255.096 272.343H257.947C254.407 272.343 251.512 275.24 251.512 278.778Z" fill="#643860"/>
<path fill-rule="evenodd" clip-rule="evenodd" d="M177.836 289.784H185.683C186.615 289.784 187.465 290.167 188.081 290.782C188.697 291.399 189.079 292.248 189.079 293.182V299.787C189.079 300.721 188.696 301.569 188.081 302.185C187.465 302.802 186.615 303.185 185.683 303.185H177.836C176.903 303.185 176.054 302.802 175.438 302.185C174.822 301.569 174.439 300.721 174.439 299.787V293.182C174.439 292.248 174.822 291.399 175.438 290.782C176.054 290.167 176.903 289.784 177.836 289.784ZM185.683 287.631H177.836C176.309 287.631 174.921 288.256 173.916 289.261C172.91 290.266 172.286 291.654 172.286 293.182V299.787C172.286 301.315 172.91 302.703 173.916 303.708C174.921 304.714 176.309 305.338 177.836 305.338H185.683C187.21 305.338 188.598 304.714 189.603 303.708C190.608 302.703 191.232 301.315 191.232 299.787V293.182C191.232 291.654 190.608 290.266 189.603 289.261C188.598 288.256 187.21 287.631 185.683 287.631" fill="#EC9665"/>
<path fill-rule="evenodd" clip-rule="evenodd" d="M179.153 297.379V298.72V305.812C179.153 308.653 181.477 310.978 184.318 310.978H191.948C194.79 310.978 197.114 308.653 197.114 305.812V298.72V297.379V285.706C197.114 284.748 196.329 283.963 195.37 283.963H180.897C179.938 283.963 179.153 284.748 179.153 285.706V297.379Z" fill="#F5AC80"/>
<path fill-rule="evenodd" clip-rule="evenodd" d="M183.629 292.213V293.553V300.645C183.629 301.567 183.873 302.434 184.3 303.184C184.81 304.082 185.582 304.814 186.51 305.276C187.199 305.62 187.976 305.812 188.795 305.812H197.114C197.114 308.653 194.789 310.978 191.948 310.978H187.525H184.318C181.477 310.978 179.153 308.653 179.153 305.812V305.337V303.184V298.719V297.379V289.784V287.631V285.707C179.153 284.747 179.938 283.963 180.897 283.963H183.629V287.631V289.784V292.213Z" fill="#EC9665"/>
<path fill-rule="evenodd" clip-rule="evenodd" d="M337.956 317.88V328.797C337.956 337.511 330.826 344.642 322.111 344.642H72.1637C63.4491 344.642 56.3188 337.512 56.3188 328.797V317.88H337.956Z" fill="#D08784"/>
<path fill-rule="evenodd" clip-rule="evenodd" d="M85.2263 344.642H80.5648V317.88H85.2263V344.642Z" fill="#BD6063"/>
<path fill-rule="evenodd" clip-rule="evenodd" d="M140.805 344.642H109.071V317.88H140.805V344.642Z" fill="#BD6063"/>
<path fill-rule="evenodd" clip-rule="evenodd" d="M191.366 344.642H186.703V317.88H191.366V344.642Z" fill="#BD6063"/>
<path fill-rule="evenodd" clip-rule="evenodd" d="M207.501 344.642H199.613V317.88H207.501V344.642Z" fill="#BD6063"/>
<path fill-rule="evenodd" clip-rule="evenodd" d="M252.138 344.642H220.052V317.88H252.138V344.642Z" fill="#BD6063"/>
<path fill-rule="evenodd" clip-rule="evenodd" d="M263.972 344.642H256.083V317.88H263.972V344.642Z" fill="#BD6063"/>
<path fill-rule="evenodd" clip-rule="evenodd" d="M337.956 326.318H56.3188V317.88H337.956V326.318Z" fill="#400F3C"/>
<path fill-rule="evenodd" clip-rule="evenodd" d="M40.5334 310.978H353.741C355.713 310.978 357.326 312.591 357.326 314.561V317.88C357.326 319.85 355.713 321.464 353.741 321.464H40.5334C38.562 321.464 36.9495 319.851 36.9495 317.88V314.561C36.9495 312.591 38.5628 310.978 40.5334 310.978Z" fill="#E2B8A3"/>
<path fill-rule="evenodd" clip-rule="evenodd" d="M259.309 310.978H263.972V321.465H259.309V310.978Z" fill="#D09E86"/>
<path fill-rule="evenodd" clip-rule="evenodd" d="M242.283 310.978H248.441V321.465H242.283V310.978Z" fill="#D09E86"/>
<path fill-rule="evenodd" clip-rule="evenodd" d="M191.724 310.978H196.386V321.465H191.724V310.978Z" fill="#D09E86"/>
<path fill-rule="evenodd" clip-rule="evenodd" d="M175.588 310.978H183.476V321.465H175.588V310.978Z" fill="#D09E86"/>
<path fill-rule="evenodd" clip-rule="evenodd" d="M92.3973 310.978H163.037V321.465H92.3973V310.978Z" fill="#D09E86"/>
<path fill-rule="evenodd" clip-rule="evenodd" d="M80.5648 310.978H88.4529V321.465H80.5648V310.978Z" fill="#D09E86"/>
<path fill-rule="evenodd" clip-rule="evenodd" d="M357.271 313.937C357.308 314.14 357.326 314.349 357.326 314.561V315.004H265.711L259.425 318.633C259.341 318.681 259.25 318.704 259.16 318.704V318.707H37.0459C36.9825 318.441 36.9489 318.164 36.9489 317.88V317.64H259.022L265.265 314.036C265.352 313.974 265.459 313.937 265.573 313.937H357.271Z" fill="white"/>
<path fill-rule="evenodd" clip-rule="evenodd" d="M74.2129 326.319V332.719C74.2129 336.028 76.9218 338.737 80.2312 338.737H334.429C331.518 342.333 327.071 344.642 322.112 344.642H72.1641C63.4487 344.642 56.3192 337.512 56.3192 328.798V326.319H74.2129Z" fill="#BD6063"/>
<path fill-rule="evenodd" clip-rule="evenodd" d="M80.5648 338.737H85.2263V344.642H80.5648V338.737Z" fill="#BD6063"/>
<path fill-rule="evenodd" clip-rule="evenodd" d="M109.071 338.737H140.805V344.642H109.071V338.737Z" fill="#BD6063"/>
<path fill-rule="evenodd" clip-rule="evenodd" d="M186.703 338.737H191.366V344.642H186.703V338.737Z" fill="#BD6063"/>
<path fill-rule="evenodd" clip-rule="evenodd" d="M199.613 338.737H207.501V344.642H199.613V338.737Z" fill="#BD6063"/>
<path fill-rule="evenodd" clip-rule="evenodd" d="M220.052 338.737H252.137V344.642H220.052V338.737Z" fill="#BD6063"/>
<path fill-rule="evenodd" clip-rule="evenodd" d="M256.083 338.737H263.972V344.642H256.083V338.737Z" fill="#BD6063"/>
<path fill-rule="evenodd" clip-rule="evenodd" d="M213.441 175.321H290.461V102.871H213.441V175.321Z" fill="#400F3C"/>
<path fill-rule="evenodd" clip-rule="evenodd" d="M224.049 163.735H279.854V114.457H224.049V163.735Z" fill="white"/>
<path fill-rule="evenodd" clip-rule="evenodd" d="M236.449 153.945H267.453V124.247H236.449V153.945Z" fill="#F5B8C2"/>
<path fill-rule="evenodd" clip-rule="evenodd" d="M211.103 68.2387H181.418C179.261 68.2387 177.497 70.0029 177.497 72.1588V88.3267V89.5224V99.8135C177.497 99.9941 177.601 100.149 177.768 100.218C177.934 100.287 178.116 100.251 178.244 100.123L184.925 93.4425H211.103C213.259 93.4425 215.024 91.6791 215.024 89.5224V72.1588C215.024 70.0029 213.259 68.2387 211.103 68.2387Z" fill="#EA5756"/>
<path fill-rule="evenodd" clip-rule="evenodd" d="M195.673 74.5425C193.827 72.6954 190.833 72.6954 188.987 74.5425C187.14 76.3888 187.14 79.383 188.987 81.2293L189.573 81.8158L196.26 88.5035L203.535 81.2293C205.38 79.383 205.38 76.3888 203.535 74.5425C201.687 72.6954 198.693 72.6954 196.847 74.5425L196.26 75.129L195.673 74.5425Z" fill="#F9F3EF"/>
<path fill-rule="evenodd" clip-rule="evenodd" d="M86.7734 139.483C86.7734 139.18 86.5271 138.934 86.2236 138.934C85.921 138.934 85.6747 139.18 85.6747 139.483V140.775H84.3836C84.0802 140.775 83.8339 141.021 83.8339 141.324C83.8339 141.627 84.0802 141.873 84.3836 141.873H85.6747V143.165C85.6747 143.468 85.921 143.714 86.2236 143.714C86.5271 143.714 86.7734 143.468 86.7734 143.165V141.873H88.0645C88.3679 141.873 88.6142 141.627 88.6142 141.324C88.6142 141.021 88.3679 140.775 88.0645 140.775H86.7734V139.483Z" fill="#D09E86"/>
<path fill-rule="evenodd" clip-rule="evenodd" d="M157.83 67.278C157.83 66.9746 157.584 66.7291 157.281 66.7291C156.978 66.7291 156.732 66.9746 156.732 67.278V68.5691H155.44C155.137 68.5691 154.891 68.8155 154.891 69.1189C154.891 69.4223 155.137 69.6678 155.44 69.6678H156.732V70.9597C156.732 71.2631 156.978 71.5087 157.281 71.5087C157.584 71.5087 157.83 71.2631 157.83 70.9597V69.6678H159.121C159.425 69.6678 159.671 69.4223 159.671 69.1189C159.671 68.8155 159.425 68.5691 159.121 68.5691H157.83V67.278Z" fill="#D09E86"/>
<path fill-rule="evenodd" clip-rule="evenodd" d="M320.169 158.51C320.169 158.207 319.924 157.96 319.62 157.96C319.316 157.96 319.071 158.207 319.071 158.51V159.801H317.78C317.476 159.801 317.23 160.047 317.23 160.351C317.23 160.654 317.476 160.9 317.78 160.9H319.071V162.192C319.071 162.494 319.316 162.741 319.62 162.741C319.924 162.741 320.169 162.494 320.169 162.192V160.9H321.46C321.764 160.9 322.01 160.654 322.01 160.351C322.01 160.047 321.764 159.801 321.46 159.801H320.169V158.51Z" fill="#D09E86"/>
<path fill-rule="evenodd" clip-rule="evenodd" d="M94.102 213.517C94.102 213.214 93.8564 212.968 93.553 212.968C93.2496 212.968 93.0033 213.214 93.0033 213.517V214.808H91.7122C91.4088 214.808 91.1632 215.055 91.1632 215.358C91.1632 215.661 91.4088 215.907 91.7122 215.907H93.0033V217.199C93.0033 217.502 93.2496 217.748 93.553 217.748C93.8564 217.748 94.102 217.502 94.102 217.199V215.907H95.393C95.6965 215.907 95.9428 215.661 95.9428 215.358C95.9428 215.055 95.6965 214.808 95.393 214.808H94.102V213.517Z" fill="#D09E86"/>
<path fill-rule="evenodd" clip-rule="evenodd" d="M341.636 290.662C341.636 290.359 341.39 290.113 341.087 290.113C340.783 290.113 340.538 290.359 340.538 290.662V291.953H339.246C338.942 291.953 338.697 292.199 338.697 292.503C338.697 292.805 338.942 293.052 339.246 293.052H340.538V294.344C340.538 294.646 340.783 294.893 341.087 294.893C341.39 294.893 341.636 294.646 341.636 294.344V293.052H342.927C343.231 293.052 343.477 292.805 343.477 292.503C343.477 292.199 343.231 291.953 342.927 291.953H341.636V290.662Z" fill="#D09E86"/>
<path fill-rule="evenodd" clip-rule="evenodd" d="M113.179 96.5507C113.179 96.2473 112.933 96.0018 112.63 96.0018C112.326 96.0018 112.08 96.2473 112.08 96.5507V97.8418H110.789C110.485 97.8418 110.24 98.0881 110.24 98.3916C110.24 98.695 110.485 98.9405 110.789 98.9405H112.08V100.232C112.08 100.536 112.326 100.781 112.63 100.781C112.933 100.781 113.179 100.536 113.179 100.232V98.9405H114.47C114.773 98.9405 115.019 98.695 115.019 98.3916C115.019 98.0881 114.773 97.8418 114.47 97.8418H113.179V96.5507Z" fill="white"/>
<path fill-rule="evenodd" clip-rule="evenodd" d="M193.434 114.235C193.434 113.932 193.188 113.686 192.885 113.686C192.582 113.686 192.335 113.932 192.335 114.235V115.527H191.044C190.741 115.527 190.495 115.773 190.495 116.076C190.495 116.38 190.741 116.625 191.044 116.625H192.335V117.917C192.335 118.221 192.582 118.466 192.885 118.466C193.188 118.466 193.434 118.221 193.434 117.917V116.625H194.726C195.029 116.625 195.275 116.38 195.275 116.076C195.275 115.773 195.029 115.527 194.726 115.527H193.434V114.235Z" fill="white"/>
<path fill-rule="evenodd" clip-rule="evenodd" d="M304.791 101.49C304.791 101.186 304.544 100.941 304.242 100.941C303.937 100.941 303.692 101.186 303.692 101.49V102.782H302.401C302.097 102.782 301.852 103.027 301.852 103.331C301.852 103.634 302.097 103.88 302.401 103.88H303.692V105.171C303.692 105.475 303.937 105.72 304.242 105.72C304.544 105.72 304.791 105.475 304.791 105.171V103.88H306.082C306.385 103.88 306.631 103.634 306.631 103.331C306.631 103.027 306.385 102.782 306.082 102.782H304.791V101.49Z" fill="white"/>
<path fill-rule="evenodd" clip-rule="evenodd" d="M276.616 195.405C276.616 195.102 276.37 194.855 276.067 194.855C275.762 194.855 275.518 195.102 275.518 195.405V196.697H274.226C273.923 196.697 273.677 196.942 273.677 197.246C273.677 197.549 273.923 197.795 274.226 197.795H275.518V199.087C275.518 199.389 275.762 199.636 276.067 199.636C276.37 199.636 276.616 199.389 276.616 199.087V197.795H277.907C278.21 197.795 278.456 197.549 278.456 197.246C278.456 196.942 278.21 196.697 277.907 196.697H276.616V195.405Z" fill="white"/>
<path fill-rule="evenodd" clip-rule="evenodd" d="M44.511 259.804C44.511 259.501 44.2655 259.255 43.9621 259.255C43.6586 259.255 43.4131 259.501 43.4131 259.804V261.095H42.1212C41.8178 261.095 41.5723 261.342 41.5723 261.645C41.5723 261.948 41.8178 262.194 42.1212 262.194H43.4131V263.486C43.4131 263.789 43.6586 264.034 43.9621 264.034C44.2655 264.034 44.511 263.789 44.511 263.486V262.194H45.8029C46.1063 262.194 46.3518 261.948 46.3518 261.645C46.3518 261.342 46.1063 261.095 45.8029 261.095H44.511V259.804Z" fill="white"/>
<path fill-rule="evenodd" clip-rule="evenodd" d="M231 190.709C231 190.407 230.754 190.16 230.451 190.16C230.147 190.16 229.902 190.407 229.902 190.709V192.001H228.61C228.307 192.001 228.061 192.247 228.061 192.55C228.061 192.853 228.307 193.1 228.61 193.1H229.902V194.391C229.902 194.694 230.147 194.94 230.451 194.94C230.754 194.94 231 194.694 231 194.391V193.1H232.292C232.595 193.1 232.841 192.853 232.841 192.55C232.841 192.247 232.595 192.001 232.292 192.001H231V190.709Z" fill="white"/>
<path fill-rule="evenodd" clip-rule="evenodd" d="M242.283 310.978H248.441V321.465H242.283V310.978Z" fill="#D09E86"/>
<path fill-rule="evenodd" clip-rule="evenodd" d="M191.724 310.978H196.386V321.465H191.724V310.978Z" fill="#D09E86"/>
<path fill-rule="evenodd" clip-rule="evenodd" d="M175.588 310.978H183.476V321.465H175.588V310.978Z" fill="#D09E86"/>
<path fill-rule="evenodd" clip-rule="evenodd" d="M92.3973 310.978H163.037V321.465H92.3973V310.978Z" fill="#D09E86"/>
<path fill-rule="evenodd" clip-rule="evenodd" d="M80.5648 310.978H88.4529V321.465H80.5648V310.978Z" fill="#D09E86"/>
</svg>
